<svg version="1.1" xmlns="http://www.w3.org/2000/svg" viewBox="0 0 1757.1358262031836 1082.8499488830566" width="1757.1358262031836" height="1082.8499488830566">
  <!-- svg-source:excalidraw -->
  
  <defs>
    <style class="style-fonts">
      @font-face {
        font-family: "Virgil";
        src: url("https://excalidraw.com/Virgil.woff2");
      }
      @font-face {
        font-family: "Cascadia";
        src: url("https://excalidraw.com/Cascadia.woff2");
      }
      @font-face {
        font-family: "Assistant";
        src: url("https://excalidraw.com/Assistant-Regular.woff2");
      }
    </style>
    
  </defs>
  <rect x="0" y="0" width="1757.1358262031836" height="1082.8499488830566" fill="#ffffff"></rect><g stroke-linecap="round" transform="translate(254.98561677630363 361.89997482299805) rotate(0 141.6000213623047 38)"><path d="M19 0 C78.33 0, 137.66 0, 264.2 0 M19 0 C103.25 0, 187.5 0, 264.2 0 M264.2 0 C276.87 0, 283.2 6.33, 283.2 19 M264.2 0 C276.87 0, 283.2 6.33, 283.2 19 M283.2 19 C283.2 33.32, 283.2 47.64, 283.2 57 M283.2 19 C283.2 30.19, 283.2 41.38, 283.2 57 M283.2 57 C283.2 69.67, 276.87 76, 264.2 76 M283.2 57 C283.2 69.67, 276.87 76, 264.2 76 M264.2 76 C179.96 76, 95.72 76, 19 76 M264.2 76 C204.6 76, 145 76, 19 76 M19 76 C6.33 76, 0 69.67, 0 57 M19 76 C6.33 76, 0 69.67, 0 57 M0 57 C0 46.66, 0 36.32, 0 19 M0 57 C0 44.31, 0 31.61, 0 19 M0 19 C0 6.33, 6.33 0, 19 0 M0 19 C0 6.33, 6.33 0, 19 0" stroke="#1e1e1e" stroke-width="1" fill="none"></path></g><g transform="translate(321.47571382220207 387.39997482299805) rotate(0 75.10992431640625 12.5)"><text x="75.10992431640625" y="0" font-family="Virgil, Segoe UI Emoji" font-size="20px" fill="#1e1e1e" text-anchor="middle" style="white-space: pre;" direction="ltr" dominant-baseline="text-before-edge">SQL statement</text></g><g stroke-linecap="round" transform="translate(618.985708329038 360.0999565124512) rotate(0 141.6000213623047 38)"><path d="M19 0 C114.45 0, 209.89 0, 264.2 0 M19 0 C103.5 0, 188 0, 264.2 0 M264.2 0 C276.87 0, 283.2 6.33, 283.2 19 M264.2 0 C276.87 0, 283.2 6.33, 283.2 19 M283.2 19 C283.2 33.75, 283.2 48.51, 283.2 57 M283.2 19 C283.2 30.77, 283.2 42.55, 283.2 57 M283.2 57 C283.2 69.67, 276.87 76, 264.2 76 M283.2 57 C283.2 69.67, 276.87 76, 264.2 76 M264.2 76 C208.39 76, 152.58 76, 19 76 M264.2 76 C186.98 76, 109.77 76, 19 76 M19 76 C6.33 76, 0 69.67, 0 57 M19 76 C6.33 76, 0 69.67, 0 57 M0 57 C0 47.76, 0 38.52, 0 19 M0 57 C0 48.27, 0 39.55, 0 19 M0 19 C0 6.33, 6.33 0, 19 0 M0 19 C0 6.33, 6.33 0, 19 0" stroke="#1e1e1e" stroke-width="1" fill="none"></path></g><g transform="translate(690.575811478452 385.5999565124512) rotate(0 70.00991821289062 12.5)"><text x="70.00991821289062" y="0" font-family="Virgil, Segoe UI Emoji" font-size="20px" fill="#1e1e1e" text-anchor="middle" style="white-space: pre;" direction="ltr" dominant-baseline="text-before-edge">Operator tree</text></g><g stroke-linecap="round" transform="translate(984.5855923622411 355.9000053405762) rotate(0 141.6000213623047 38)"><path d="M19 0 C86.11 0, 153.22 0, 264.2 0 M19 0 C105.21 0, 191.42 0, 264.2 0 M264.2 0 C276.87 0, 283.2 6.33, 283.2 19 M264.2 0 C276.87 0, 283.2 6.33, 283.2 19 M283.2 19 C283.2 30.29, 283.2 41.58, 283.2 57 M283.2 19 C283.2 30.15, 283.2 41.3, 283.2 57 M283.2 57 C283.2 69.67, 276.87 76, 264.2 76 M283.2 57 C283.2 69.67, 276.87 76, 264.2 76 M264.2 76 C209.67 76, 155.14 76, 19 76 M264.2 76 C190.44 76, 116.67 76, 19 76 M19 76 C6.33 76, 0 69.67, 0 57 M19 76 C6.33 76, 0 69.67, 0 57 M0 57 C0 44.09, 0 31.18, 0 19 M0 57 C0 42.04, 0 27.08, 0 19 M0 19 C0 6.33, 6.33 0, 19 0 M0 19 C0 6.33, 6.33 0, 19 0" stroke="#1e1e1e" stroke-width="1" fill="none"></path></g><g transform="translate(1057.7856884926123 381.4000053405762) rotate(0 68.3999252319336 12.5)"><text x="68.3999252319336" y="0" font-family="Virgil, Segoe UI Emoji" font-size="20px" fill="#1e1e1e" text-anchor="middle" style="white-space: pre;" direction="ltr" dominant-baseline="text-before-edge">Canonical plan</text></g><g stroke-linecap="round" transform="translate(1349.3857327431006 354.0999870300293) rotate(0 141.6000213623047 38)"><path d="M19 0 C101.09 0, 183.18 0, 264.2 0 M19 0 C86.06 0, 153.11 0, 264.2 0 M264.2 0 C276.87 0, 283.2 6.33, 283.2 19 M264.2 0 C276.87 0, 283.2 6.33, 283.2 19 M283.2 19 C283.2 31.69, 283.2 44.38, 283.2 57 M283.2 19 C283.2 32.86, 283.2 46.72, 283.2 57 M283.2 57 C283.2 69.67, 276.87 76, 264.2 76 M283.2 57 C283.2 69.67, 276.87 76, 264.2 76 M264.2 76 C191.91 76, 119.62 76, 19 76 M264.2 76 C194 76, 123.8 76, 19 76 M19 76 C6.33 76, 0 69.67, 0 57 M19 76 C6.33 76, 0 69.67, 0 57 M0 57 C0 47.65, 0 38.3, 0 19 M0 57 C0 42.45, 0 27.91, 0 19 M0 19 C0 6.33, 6.33 0, 19 0 M0 19 C0 6.33, 6.33 0, 19 0" stroke="#1e1e1e" stroke-width="1" fill="none"></path></g><g transform="translate(1423.0558377235693 379.5999870300293) rotate(0 67.92991638183594 12.5)"><text x="67.92991638183594" y="0" font-family="Virgil, Segoe UI Emoji" font-size="20px" fill="#1e1e1e" text-anchor="middle" style="white-space: pre;" direction="ltr" dominant-baseline="text-before-edge">Verifiable plan</text></g><g stroke-linecap="round" transform="translate(249.98557862933097 676.5000801086426) rotate(0 141.6000213623047 38)"><path d="M19 0 C86.97 0, 154.95 0, 264.2 0 M19 0 C84.27 0, 149.54 0, 264.2 0 M264.2 0 C276.87 0, 283.2 6.33, 283.2 19 M264.2 0 C276.87 0, 283.2 6.33, 283.2 19 M283.2 19 C283.2 32.04, 283.2 45.07, 283.2 57 M283.2 19 C283.2 31.31, 283.2 43.61, 283.2 57 M283.2 57 C283.2 69.67, 276.87 76, 264.2 76 M283.2 57 C283.2 69.67, 276.87 76, 264.2 76 M264.2 76 C167.66 76, 71.13 76, 19 76 M264.2 76 C183.84 76, 103.48 76, 19 76 M19 76 C6.33 76, 0 69.67, 0 57 M19 76 C6.33 76, 0 69.67, 0 57 M0 57 C0 47.22, 0 37.45, 0 19 M0 57 C0 42.55, 0 28.1, 0 19 M0 19 C0 6.33, 6.33 0, 19 0 M0 19 C0 6.33, 6.33 0, 19 0" stroke="#1e1e1e" stroke-width="1" fill="none"></path></g><g transform="translate(285.36572847063957 689.5000801086426) rotate(0 106.2198715209961 25)"><text x="106.2198715209961" y="0" font-family="Virgil, Segoe UI Emoji" font-size="20px" fill="#1e1e1e" text-anchor="middle" style="white-space: pre;" direction="ltr" dominant-baseline="text-before-edge">Map plan to data &amp; </text><text x="106.2198715209961" y="25" font-family="Virgil, Segoe UI Emoji" font-size="20px" fill="#1e1e1e" text-anchor="middle" style="white-space: pre;" direction="ltr" dominant-baseline="text-before-edge">commitments</text></g><g stroke-linecap="round" transform="translate(643.985708329038 662.7000541687012) rotate(0 141.6000213623047 38)"><path d="M19 0 C116.08 0, 213.17 0, 264.2 0 M19 0 C81.88 0, 144.75 0, 264.2 0 M264.2 0 C276.87 0, 283.2 6.33, 283.2 19 M264.2 0 C276.87 0, 283.2 6.33, 283.2 19 M283.2 19 C283.2 33.13, 283.2 47.27, 283.2 57 M283.2 19 C283.2 28.74, 283.2 38.48, 283.2 57 M283.2 57 C283.2 69.67, 276.87 76, 264.2 76 M283.2 57 C283.2 69.67, 276.87 76, 264.2 76 M264.2 76 C211.55 76, 158.9 76, 19 76 M264.2 76 C169.8 76, 75.41 76, 19 76 M19 76 C6.33 76, 0 69.67, 0 57 M19 76 C6.33 76, 0 69.67, 0 57 M0 57 C0 43.96, 0 30.91, 0 19 M0 57 C0 44.6, 0 32.19, 0 19 M0 19 C0 6.33, 6.33 0, 19 0 M0 19 C0 6.33, 6.33 0, 19 0" stroke="#1e1e1e" stroke-width="1" fill="none"></path></g><g transform="translate(655.2158719032567 688.2000541687012) rotate(0 130.36985778808594 12.5)"><text x="130.36985778808594" y="0" font-family="Virgil, Segoe UI Emoji" font-size="20px" fill="#1e1e1e" text-anchor="middle" style="white-space: pre;" direction="ltr" dominant-baseline="text-before-edge">Interactively execute plan</text></g><g stroke-linecap="round"><g transform="translate(548.1857357948583 390.6999931335449) rotate(0 26 0.399993896484375)"><path d="M0 0 C8.67 0.13, 43.33 0.67, 52 0.8 M0 0 C8.67 0.13, 43.33 0.67, 52 0.8" stroke="#1e1e1e" stroke-width="1" fill="none"></path></g><g transform="translate(548.1857357948583 390.6999931335449) rotate(0 26 0.399993896484375)"><path d="M27.43 9.32 C32.47 7.57, 37.52 5.82, 52 0.8 M27.43 9.32 C32.81 7.45, 38.18 5.59, 52 0.8" stroke="#1e1e1e" stroke-width="1" fill="none"></path></g><g transform="translate(548.1857357948583 390.6999931335449) rotate(0 26 0.399993896484375)"><path d="M27.7 -8.47 C32.69 -6.57, 37.68 -4.66, 52 0.8 M27.7 -8.47 C33.02 -6.44, 38.34 -4.41, 52 0.8" stroke="#1e1e1e" stroke-width="1" fill="none"></path></g></g><mask></mask><g stroke-linecap="round"><g transform="translate(916.9857846229833 401.14380146732924) rotate(0 25.20001220703125 0.5646190209320707)"><path d="M0 0 C8.4 0.19, 42 0.94, 50.4 1.13 M0 0 C8.4 0.19, 42 0.94, 50.4 1.13" stroke="#1e1e1e" stroke-width="1" fill="none"></path></g><g transform="translate(916.9857846229833 401.14380146732924) rotate(0 25.20001220703125 0.5646190209320707)"><path d="M26.53 9.22 C32.41 7.23, 38.29 5.23, 50.4 1.13 M26.53 9.22 C31.7 7.46, 36.88 5.71, 50.4 1.13" stroke="#1e1e1e" stroke-width="1" fill="none"></path></g><g transform="translate(916.9857846229833 401.14380146732924) rotate(0 25.20001220703125 0.5646190209320707)"><path d="M26.91 -8.02 C32.7 -5.77, 38.48 -3.51, 50.4 1.13 M26.91 -8.02 C32 -6.04, 37.09 -4.05, 50.4 1.13" stroke="#1e1e1e" stroke-width="1" fill="none"></path></g></g><mask></mask><g stroke-linecap="round"><g transform="translate(1283.9857235878271 394.7353496985504) rotate(0 25.20001220703125 0.5646190209320707)"><path d="M0 0 C8.4 0.19, 42 0.94, 50.4 1.13 M0 0 C8.4 0.19, 42 0.94, 50.4 1.13" stroke="#1e1e1e" stroke-width="1" fill="none"></path></g><g transform="translate(1283.9857235878271 394.7353496985504) rotate(0 25.20001220703125 0.5646190209320707)"><path d="M26.53 9.22 C34.66 6.46, 42.79 3.71, 50.4 1.13 M26.53 9.22 C33.71 6.78, 40.9 4.35, 50.4 1.13" stroke="#1e1e1e" stroke-width="1" fill="none"></path></g><g transform="translate(1283.9857235878271 394.7353496985504) rotate(0 25.20001220703125 0.5646190209320707)"><path d="M26.91 -8.02 C34.91 -4.9, 42.91 -1.79, 50.4 1.13 M26.91 -8.02 C33.98 -5.27, 41.05 -2.51, 50.4 1.13" stroke="#1e1e1e" stroke-width="1" fill="none"></path></g></g><mask></mask><g stroke-linecap="round"><g transform="translate(1515.4473936715603 439.24997329711914) rotate(0 -576.5142159921904 112.00000762939453)"><path d="M0 0 C-167.72 13.88, -814.14 45.92, -1006.31 83.25 C-1198.48 120.58, -1128.58 200.54, -1153.03 224 M0 0 C-167.72 13.88, -814.14 45.92, -1006.31 83.25 C-1198.48 120.58, -1128.58 200.54, -1153.03 224" stroke="#1e1e1e" stroke-width="1" fill="none"></path></g><g transform="translate(1515.4473936715603 439.24997329711914) rotate(0 -576.5142159921904 112.00000762939453)"><path d="M-1158.06 194.42 C-1156.62 202.88, -1155.18 211.34, -1153.03 224 M-1158.06 194.42 C-1156.94 201.01, -1155.82 207.6, -1153.03 224" stroke="#1e1e1e" stroke-width="1" fill="none"></path></g><g transform="translate(1515.4473936715603 439.24997329711914) rotate(0 -576.5142159921904 112.00000762939453)"><path d="M-1137.87 198.11 C-1142.21 205.52, -1146.54 212.92, -1153.03 224 M-1137.87 198.11 C-1141.25 203.88, -1144.62 209.65, -1153.03 224" stroke="#1e1e1e" stroke-width="1" fill="none"></path></g></g><mask></mask><g stroke-linecap="round"><g transform="translate(540.3857480018896 713.6045246167791) rotate(0 47.000007629394474 -1.7012930981281897)"><path d="M0 0 C15.67 -0.57, 78.33 -2.84, 94 -3.4 M0 0 C15.67 -0.57, 78.33 -2.84, 94 -3.4" stroke="#1e1e1e" stroke-width="1" fill="none"></path></g><g transform="translate(540.3857480018896 713.6045246167791) rotate(0 47.000007629394474 -1.7012930981281897)"><path d="M66.2 7.87 C73.9 4.75, 81.6 1.63, 94 -3.4 M66.2 7.87 C76.17 3.83, 86.14 -0.22, 94 -3.4" stroke="#1e1e1e" stroke-width="1" fill="none"></path></g><g transform="translate(540.3857480018896 713.6045246167791) rotate(0 47.000007629394474 -1.7012930981281897)"><path d="M65.46 -12.64 C73.36 -10.08, 81.27 -7.52, 94 -3.4 M65.46 -12.64 C75.69 -9.32, 85.93 -6.01, 94 -3.4" stroke="#1e1e1e" stroke-width="1" fill="none"></path></g></g><mask></mask><g stroke-linecap="round" transform="translate(219.3857441871923 280.24999618530273) rotate(0 761.0000324249268 105.49999237060547)"><path d="M32 0 C552.6 0, 1073.2 0, 1490 0 M32 0 C392.77 0, 753.54 0, 1490 0 M1490 0 C1511.33 0, 1522 10.67, 1522 32 M1490 0 C1511.33 0, 1522 10.67, 1522 32 M1522 32 C1522 61.74, 1522 91.48, 1522 179 M1522 32 C1522 78.29, 1522 124.57, 1522 179 M1522 179 C1522 200.33, 1511.33 211, 1490 211 M1522 179 C1522 200.33, 1511.33 211, 1490 211 M1490 211 C1110.5 211, 731 211, 32 211 M1490 211 C1194.52 211, 899.04 211, 32 211 M32 211 C10.67 211, 0 200.33, 0 179 M32 211 C10.67 211, 0 200.33, 0 179 M0 179 C0 140.32, 0 101.64, 0 32 M0 179 C0 131.92, 0 84.84, 0 32 M0 32 C0 10.67, 10.67 0, 32 0 M0 32 C0 10.67, 10.67 0, 32 0" stroke="#1e1e1e" stroke-width="1" fill="none"></path></g><g stroke-linecap="round" transform="translate(218.13573083575187 584.7498893737793) rotate(0 761.0000324249268 107.00000762939453)"><path d="M32 0 C587.63 0, 1143.26 0, 1490 0 M32 0 C521.55 0, 1011.1 0, 1490 0 M1490 0 C1511.33 0, 1522 10.67, 1522 32 M1490 0 C1511.33 0, 1522 10.67, 1522 32 M1522 32 C1522 80.06, 1522 128.13, 1522 182 M1522 32 C1522 86.25, 1522 140.5, 1522 182 M1522 182 C1522 203.33, 1511.33 214, 1490 214 M1522 182 C1522 203.33, 1511.33 214, 1490 214 M1490 214 C938.27 214, 386.53 214, 32 214 M1490 214 C941.67 214, 393.33 214, 32 214 M32 214 C10.67 214, 0 203.33, 0 182 M32 214 C10.67 214, 0 203.33, 0 182 M0 182 C0 135.82, 0 89.64, 0 32 M0 182 C0 131.22, 0 80.44, 0 32 M0 32 C0 10.67, 10.67 0, 32 0 M0 32 C0 10.67, 10.67 0, 32 0" stroke="#1e1e1e" stroke-width="1" fill="none"></path></g><g transform="translate(281.63574800188957 306.2499809265137) rotate(0 44.95995330810547 12.5)"><text x="0" y="0" font-family="Virgil, Segoe UI Emoji" font-size="20px" fill="#1971c2" text-anchor="start" style="white-space: pre;" direction="ltr" dominant-baseline="text-before-edge">front-end</text></g><g transform="translate(447.13574800188957 602.0000267028809) rotate(0 223.41973876953125 12.5)"><text x="0" y="0" font-family="Virgil, Segoe UI Emoji" font-size="20px" fill="#1971c2" text-anchor="start" style="white-space: pre;" direction="ltr" dominant-baseline="text-before-edge">Off-chain computation using zk stark circuits</text></g><g stroke-linecap="round" transform="translate(225.13576135333 10) rotate(0 761.0000324249268 105.49999237060547)"><path d="M32 0 C343.8 0, 655.6 0, 1490 0 M32 0 C449.35 0, 866.7 0, 1490 0 M1490 0 C1511.33 0, 1522 10.67, 1522 32 M1490 0 C1511.33 0, 1522 10.67, 1522 32 M1522 32 C1522 67.9, 1522 103.8, 1522 179 M1522 32 C1522 78.63, 1522 125.27, 1522 179 M1522 179 C1522 200.33, 1511.33 211, 1490 211 M1522 179 C1522 200.33, 1511.33 211, 1490 211 M1490 211 C1176.47 211, 862.95 211, 32 211 M1490 211 C948.98 211, 407.96 211, 32 211 M32 211 C10.67 211, 0 200.33, 0 179 M32 211 C10.67 211, 0 200.33, 0 179 M0 179 C0 124.97, 0 70.94, 0 32 M0 179 C0 141.78, 0 104.55, 0 32 M0 32 C0 10.67, 10.67 0, 32 0 M0 32 C0 10.67, 10.67 0, 32 0" stroke="#1e1e1e" stroke-width="1" fill="none"></path></g><g transform="translate(281.3857327431005 32.75001525878906) rotate(0 102.70988464355469 12.5)"><text x="0" y="0" font-family="Virgil, Segoe UI Emoji" font-size="20px" fill="#1971c2" text-anchor="start" style="white-space: pre;" direction="ltr" dominant-baseline="text-before-edge">Filecoin web3.storage</text></g><g stroke-linecap="round" transform="translate(275.38574800188957 91.24998092651367) rotate(0 132.99999237060547 36.499996185302734)"><path d="M18.25 0 C107.83 0, 197.41 0, 247.75 0 M18.25 0 C69.69 0, 121.14 0, 247.75 0 M247.75 0 C259.92 0, 266 6.08, 266 18.25 M247.75 0 C259.92 0, 266 6.08, 266 18.25 M266 18.25 C266 28.42, 266 38.59, 266 54.75 M266 18.25 C266 31.44, 266 44.62, 266 54.75 M266 54.75 C266 66.92, 259.92 73, 247.75 73 M266 54.75 C266 66.92, 259.92 73, 247.75 73 M247.75 73 C190.71 73, 133.66 73, 18.25 73 M247.75 73 C181.44 73, 115.13 73, 18.25 73 M18.25 73 C6.08 73, 0 66.92, 0 54.75 M18.25 73 C6.08 73, 0 66.92, 0 54.75 M0 54.75 C0 45.57, 0 36.38, 0 18.25 M0 54.75 C0 42.34, 0 29.93, 0 18.25 M0 18.25 C0 6.08, 6.08 0, 18.25 0 M0 18.25 C0 6.08, 6.08 0, 18.25 0" stroke="#1e1e1e" stroke-width="1" fill="none"></path></g><g transform="translate(384.50575837786613 115.2499771118164) rotate(0 23.879981994628906 12.5)"><text x="23.879981994628906" y="0" font-family="Virgil, Segoe UI Emoji" font-size="20px" fill="#1e1e1e" text-anchor="middle" style="white-space: pre;" direction="ltr" dominant-baseline="text-before-edge">IPFS</text></g><g stroke-linecap="round"><g transform="translate(403.88577089007316 180.49997329711914) rotate(0 -1.0000038146972656 82.5)"><path d="M0 0 C-0.33 27.5, -1.67 137.5, -2 165 M0 0 C-0.33 27.5, -1.67 137.5, -2 165" stroke="#1e1e1e" stroke-width="1" fill="none"></path></g><g transform="translate(403.88577089007316 180.49997329711914) rotate(0 -1.0000038146972656 82.5)"><path d="M-11.92 136.69 C-7.97 147.96, -4.02 159.23, -2 165 M-11.92 136.69 C-9.75 142.88, -7.58 149.08, -2 165" stroke="#1e1e1e" stroke-width="1" fill="none"></path></g><g transform="translate(403.88577089007316 180.49997329711914) rotate(0 -1.0000038146972656 82.5)"><path d="M8.6 136.94 C4.38 148.11, 0.16 159.28, -2 165 M8.6 136.94 C6.28 143.08, 3.96 149.22, -2 165" stroke="#1e1e1e" stroke-width="1" fill="none"></path></g></g><mask></mask><g stroke-linecap="round" transform="translate(214.88566980059562 861.7500114440918) rotate(0 198.50003242492676 105.49999237060547)"><path d="M32 0 C142.58 0, 253.16 0, 365 0 M32 0 C121.63 0, 211.27 0, 365 0 M365 0 C386.33 0, 397 10.67, 397 32 M365 0 C386.33 0, 397 10.67, 397 32 M397 32 C397 79.05, 397 126.1, 397 179 M397 32 C397 65.37, 397 98.74, 397 179 M397 179 C397 200.33, 386.33 211, 365 211 M397 179 C397 200.33, 386.33 211, 365 211 M365 211 C237.06 211, 109.12 211, 32 211 M365 211 C281.37 211, 197.73 211, 32 211 M32 211 C10.67 211, 0 200.33, 0 179 M32 211 C10.67 211, 0 200.33, 0 179 M0 179 C0 142.36, 0 105.72, 0 32 M0 179 C0 141.87, 0 104.74, 0 32 M0 32 C0 10.67, 10.67 0, 32 0 M0 32 C0 10.67, 10.67 0, 32 0" stroke="#1e1e1e" stroke-width="1" fill="none"></path></g><g transform="translate(271.13564119036613 884.5000267028809) rotate(0 102.70988464355469 12.5)"><text x="0" y="0" font-family="Virgil, Segoe UI Emoji" font-size="20px" fill="#1971c2" text-anchor="start" style="white-space: pre;" direction="ltr" dominant-baseline="text-before-edge">Filecoin web3.storage</text></g><g stroke-linecap="round" transform="translate(265.1356564491552 942.9999923706055) rotate(0 132.99999237060547 36.499996185302734)"><path d="M18.25 0 C77.44 0, 136.64 0, 247.75 0 M18.25 0 C95.19 0, 172.13 0, 247.75 0 M247.75 0 C259.92 0, 266 6.08, 266 18.25 M247.75 0 C259.92 0, 266 6.08, 266 18.25 M266 18.25 C266 30.39, 266 42.52, 266 54.75 M266 18.25 C266 31.71, 266 45.17, 266 54.75 M266 54.75 C266 66.92, 259.92 73, 247.75 73 M266 54.75 C266 66.92, 259.92 73, 247.75 73 M247.75 73 C194.91 73, 142.07 73, 18.25 73 M247.75 73 C181.65 73, 115.55 73, 18.25 73 M18.25 73 C6.08 73, 0 66.92, 0 54.75 M18.25 73 C6.08 73, 0 66.92, 0 54.75 M0 54.75 C0 45.16, 0 35.57, 0 18.25 M0 54.75 C0 41.01, 0 27.27, 0 18.25 M0 18.25 C0 6.08, 6.08 0, 18.25 0 M0 18.25 C0 6.08, 6.08 0, 18.25 0" stroke="#1e1e1e" stroke-width="1" fill="none"></path></g><g transform="translate(374.25566682513175 966.9999885559082) rotate(0 23.879981994628906 12.5)"><text x="23.879981994628906" y="0" font-family="Virgil, Segoe UI Emoji" font-size="20px" fill="#1e1e1e" text-anchor="middle" style="white-space: pre;" direction="ltr" dominant-baseline="text-before-edge">IPFS</text></g><g stroke-linecap="round"><g transform="translate(739.6857968300145 755.7499809265137) rotate(0 -115.20001220703125 73.60000610351562)"><path d="M0 0 C-38.4 24.53, -192 122.67, -230.4 147.2 M0 0 C-38.4 24.53, -192 122.67, -230.4 147.2" stroke="#1e1e1e" stroke-width="1" fill="none"></path></g><g transform="translate(739.6857968300145 755.7499809265137) rotate(0 -115.20001220703125 73.60000610351562)"><path d="M-212.17 123.38 C-217.67 130.56, -223.17 137.75, -230.4 147.2 M-212.17 123.38 C-215.92 128.27, -219.67 133.17, -230.4 147.2" stroke="#1e1e1e" stroke-width="1" fill="none"></path></g><g transform="translate(739.6857968300145 755.7499809265137) rotate(0 -115.20001220703125 73.60000610351562)"><path d="M-201.12 140.67 C-209.95 142.64, -218.79 144.61, -230.4 147.2 M-201.12 140.67 C-207.14 142.01, -213.16 143.35, -230.4 147.2" stroke="#1e1e1e" stroke-width="1" fill="none"></path></g></g><mask></mask><g transform="translate(207.68579683001468 816.5500907897949) rotate(0 174.75979614257812 12.5)"><text x="0" y="0" font-family="Virgil, Segoe UI Emoji" font-size="20px" fill="#1e1e1e" text-anchor="start" style="white-space: pre;" direction="ltr" dominant-baseline="text-before-edge">store result of SQL query on IPFS</text></g><g stroke-linecap="round" transform="translate(729.1857644050878 861.8499641418457) rotate(0 503.30008125305176 105.49999237060547)"><path d="M32 0 C229.08 0, 426.15 0, 974.6 0 M32 0 C340.41 0, 648.81 0, 974.6 0 M974.6 0 C995.93 0, 1006.6 10.67, 1006.6 32 M974.6 0 C995.93 0, 1006.6 10.67, 1006.6 32 M1006.6 32 C1006.6 90.76, 1006.6 149.51, 1006.6 179 M1006.6 32 C1006.6 75.63, 1006.6 119.25, 1006.6 179 M1006.6 179 C1006.6 200.33, 995.93 211, 974.6 211 M1006.6 179 C1006.6 200.33, 995.93 211, 974.6 211 M974.6 211 C733.6 211, 492.6 211, 32 211 M974.6 211 C654.67 211, 334.74 211, 32 211 M32 211 C10.67 211, 0 200.33, 0 179 M32 211 C10.67 211, 0 200.33, 0 179 M0 179 C0 126.61, 0 74.23, 0 32 M0 179 C0 125.93, 0 72.86, 0 32 M0 32 C0 10.67, 10.67 0, 32 0 M0 32 C0 10.67, 10.67 0, 32 0" stroke="#1e1e1e" stroke-width="1" fill="none"></path></g><g stroke-linecap="round"><g transform="translate(861.285772415952 754.1500053405762) rotate(0 0 76)"><path d="M0 0 C0 25.33, 0 126.67, 0 152 M0 0 C0 25.33, 0 126.67, 0 152" stroke="#1e1e1e" stroke-width="1" fill="none"></path></g><g transform="translate(861.285772415952 754.1500053405762) rotate(0 0 76)"><path d="M-10.26 123.81 C-6.74 133.48, -3.22 143.15, 0 152 M-10.26 123.81 C-7.8 130.56, -5.35 137.31, 0 152" stroke="#1e1e1e" stroke-width="1" fill="none"></path></g><g transform="translate(861.285772415952 754.1500053405762) rotate(0 0 76)"><path d="M10.26 123.81 C6.74 133.48, 3.22 143.15, 0 152 M10.26 123.81 C7.8 130.56, 5.35 137.31, 0 152" stroke="#1e1e1e" stroke-width="1" fill="none"></path></g></g><mask></mask><g transform="translate(1002.8857480018893 821.7499809265137) rotate(0 339.58966064453125 12.5)"><text x="0" y="0" font-family="Virgil, Segoe UI Emoji" font-size="20px" fill="#1e1e1e" text-anchor="start" style="white-space: pre;" direction="ltr" dominant-baseline="text-before-edge">store sql statement, ipfs hash + web3 storage, verification hashs  </text></g><g stroke-linecap="round" transform="translate(778.2857800453463 938.0500335693359) rotate(0 132.99999237060547 36.499996185302734)"><path d="M18.25 0 C70.03 0, 121.81 0, 247.75 0 M18.25 0 C72.25 0, 126.24 0, 247.75 0 M247.75 0 C259.92 0, 266 6.08, 266 18.25 M247.75 0 C259.92 0, 266 6.08, 266 18.25 M266 18.25 C266 28.67, 266 39.1, 266 54.75 M266 18.25 C266 28.08, 266 37.91, 266 54.75 M266 54.75 C266 66.92, 259.92 73, 247.75 73 M266 54.75 C266 66.92, 259.92 73, 247.75 73 M247.75 73 C189.15 73, 130.55 73, 18.25 73 M247.75 73 C199.96 73, 152.17 73, 18.25 73 M18.25 73 C6.08 73, 0 66.92, 0 54.75 M18.25 73 C6.08 73, 0 66.92, 0 54.75 M0 54.75 C0 44.68, 0 34.6, 0 18.25 M0 54.75 C0 44.45, 0 34.15, 0 18.25 M0 18.25 C0 6.08, 6.08 0, 18.25 0 M0 18.25 C0 6.08, 6.08 0, 18.25 0" stroke="#1e1e1e" stroke-width="1" fill="none"></path></g><g transform="translate(810.3958874672213 962.0500297546387) rotate(0 100.88988494873047 12.5)"><text x="100.88988494873047" y="0" font-family="Virgil, Segoe UI Emoji" font-size="20px" fill="#1e1e1e" text-anchor="middle" style="white-space: pre;" direction="ltr" dominant-baseline="text-before-edge">Verify execution plan</text></g><g stroke-linecap="round"><g transform="translate(1056.485723587827 974.9500541687012) rotate(0 48 -0.00006103515625)"><path d="M0 0 C16 0, 80 0, 96 0 M0 0 C16 0, 80 0, 96 0" stroke="#1e1e1e" stroke-width="1" fill="none"></path></g><g transform="translate(1056.485723587827 974.9500541687012) rotate(0 48 -0.00006103515625)"><path d="M67.81 10.26 C78.39 6.41, 88.97 2.56, 96 0 M67.81 10.26 C73.95 8.02, 80.1 5.79, 96 0" stroke="#1e1e1e" stroke-width="1" fill="none"></path></g><g transform="translate(1056.485723587827 974.9500541687012) rotate(0 48 -0.00006103515625)"><path d="M67.81 -10.26 C78.39 -6.41, 88.97 -2.56, 96 0 M67.81 -10.26 C73.95 -8.02, 80.1 -5.79, 96 0" stroke="#1e1e1e" stroke-width="1" fill="none"></path></g></g><mask></mask><g transform="translate(788.0856991737647 1038.9500541687012) rotate(0 61.469940185546875 12.5)"><text x="0" y="0" font-family="Virgil, Segoe UI Emoji" font-size="20px" fill="#1971c2" text-anchor="start" style="white-space: pre;" direction="ltr" dominant-baseline="text-before-edge">Starknet L2</text></g><g stroke-linecap="round" transform="translate(1168.2857800453464 933.6500091552734) rotate(0 132.99999237060547 42.5)"><path d="M21.25 0 C77.6 0, 133.96 0, 244.75 0 M21.25 0 C102.88 0, 184.5 0, 244.75 0 M244.75 0 C258.92 0, 266 7.08, 266 21.25 M244.75 0 C258.92 0, 266 7.08, 266 21.25 M266 21.25 C266 32.43, 266 43.61, 266 63.75 M266 21.25 C266 34.33, 266 47.42, 266 63.75 M266 63.75 C266 77.92, 258.92 85, 244.75 85 M266 63.75 C266 77.92, 258.92 85, 244.75 85 M244.75 85 C198.75 85, 152.75 85, 21.25 85 M244.75 85 C156.56 85, 68.37 85, 21.25 85 M21.25 85 C7.08 85, 0 77.92, 0 63.75 M21.25 85 C7.08 85, 0 77.92, 0 63.75 M0 63.75 C0 51.65, 0 39.55, 0 21.25 M0 63.75 C0 50.73, 0 37.71, 0 21.25 M0 21.25 C0 7.08, 7.08 0, 21.25 0 M0 21.25 C0 7.08, 7.08 0, 21.25 0" stroke="#1e1e1e" stroke-width="1" fill="none"></path></g><g transform="translate(1193.0558911293308 938.6500091552734) rotate(0 108.2298812866211 37.5)"><text x="108.2298812866211" y="0" font-family="Virgil, Segoe UI Emoji" font-size="20px" fill="#1e1e1e" text-anchor="middle" style="white-space: pre;" direction="ltr" dominant-baseline="text-before-edge">Store metadata of </text><text x="108.2298812866211" y="25" font-family="Virgil, Segoe UI Emoji" font-size="20px" fill="#1e1e1e" text-anchor="middle" style="white-space: pre;" direction="ltr" dominant-baseline="text-before-edge">execution on starknet</text><text x="108.2298812866211" y="50" font-family="Virgil, Segoe UI Emoji" font-size="20px" fill="#1e1e1e" text-anchor="middle" style="white-space: pre;" direction="ltr" dominant-baseline="text-before-edge"></text></g><g transform="translate(1480.4858456581394 908.5500297546387) rotate(0 96.82988739013672 62.5)"><text x="0" y="0" font-family="Virgil, Segoe UI Emoji" font-size="20px" fill="#f08c00" text-anchor="start" style="white-space: pre;" direction="ltr" dominant-baseline="text-before-edge">{</text><text x="0" y="25" font-family="Virgil, Segoe UI Emoji" font-size="20px" fill="#f08c00" text-anchor="start" style="white-space: pre;" direction="ltr" dominant-baseline="text-before-edge"> sql-statement: ... ,</text><text x="0" y="50" font-family="Virgil, Segoe UI Emoji" font-size="20px" fill="#f08c00" text-anchor="start" style="white-space: pre;" direction="ltr" dominant-baseline="text-before-edge"> ipfs-hash: ... ,</text><text x="0" y="75" font-family="Virgil, Segoe UI Emoji" font-size="20px" fill="#f08c00" text-anchor="start" style="white-space: pre;" direction="ltr" dominant-baseline="text-before-edge"> ....</text><text x="0" y="100" font-family="Virgil, Segoe UI Emoji" font-size="20px" fill="#f08c00" text-anchor="start" style="white-space: pre;" direction="ltr" dominant-baseline="text-before-edge">}</text></g><g stroke-linecap="round"><g transform="translate(270.88574800188957 122.94997787475592) rotate(0 -130.39999389648432 301.60001373291004)"><path d="M0 0 C-43.47 48.8, -256 192.27, -260.8 292.8 C-265.6 393.33, -67.47 551.47, -28.8 603.2 M0 0 C-43.47 48.8, -256 192.27, -260.8 292.8 C-265.6 393.33, -67.47 551.47, -28.8 603.2" stroke="#1e1e1e" stroke-width="1" fill="none"></path></g><g transform="translate(270.88574800188957 122.94997787475592) rotate(0 -130.39999389648432 301.60001373291004)"><path d="M-55.73 589.98 C-49.3 593.14, -42.87 596.29, -28.8 603.2 M-55.73 589.98 C-46.11 594.7, -36.5 599.42, -28.8 603.2" stroke="#1e1e1e" stroke-width="1" fill="none"></path></g><g transform="translate(270.88574800188957 122.94997787475592) rotate(0 -130.39999389648432 301.60001373291004)"><path d="M-40.93 575.76 C-38.03 582.31, -35.14 588.87, -28.8 603.2 M-40.93 575.76 C-36.6 585.56, -32.27 595.36, -28.8 603.2" stroke="#1e1e1e" stroke-width="1" fill="none"></path></g></g><mask></mask></svg>